<svg width="104" height="96" viewBox="0 0 104 96" fill="none" xmlns="http://www.w3.org/2000/svg">
<g filter="url(#filter0_dd)">
<path fill-rule="evenodd" clip-rule="evenodd" d="M15.3861 6C10.2023 6 6 10.2023 6 15.3861V80.15C6 85.3338 10.2023 89.5361 15.3861 89.5361H87.6589C92.8427 89.5361 97.0449 85.3338 97.0449 80.15V15.3861C97.0449 10.2023 92.8427 6 87.6589 6H15.3861ZM21.855 23.4836V71.4652H40.3042C45.17 71.4652 49.405 70.474 53.0092 68.4917C56.6585 66.5093 59.4744 63.716 61.4567 60.1118C63.4841 56.5075 64.4978 52.2725 64.4978 47.4068C64.4978 42.9916 63.5742 38.9818 61.727 35.3776C59.9249 31.7283 57.2217 28.8449 53.6175 26.7274C50.0583 24.5648 45.6205 23.4836 40.3042 23.4836H21.855ZM48.2111 38.4187C50.1484 40.6713 51.117 43.6674 51.117 47.4068C51.117 51.011 50.1709 54.0071 48.2787 56.3949C46.4315 58.7827 43.7733 59.9766 40.3042 59.9766H35.033V34.9721H40.3042C43.6832 34.9721 46.3188 36.121 48.2111 38.4187ZM66.7834 59.0305V71.4652H77.1907V59.0305H66.7834Z" fill="#27AE60"/>
</g>
<defs>
<filter id="filter0_dd" x="0" y="0" width="103.045" height="95.5361" filterUnits="userSpaceOnUse" color-interpolation-filters="sRGB">
<feFlood flood-opacity="0" result="BackgroundImageFix"/>
<feColorMatrix in="SourceAlpha" type="matrix" values="0 0 0 0 0 0 0 0 0 0 0 0 0 0 0 0 0 0 127 0"/>
<feOffset dx="2" dy="2"/>
<feGaussianBlur stdDeviation="2"/>
<feColorMatrix type="matrix" values="0 0 0 0 0 0 0 0 0 0 0 0 0 0 0 0 0 0 0.25 0"/>
<feBlend mode="normal" in2="BackgroundImageFix" result="effect1_dropShadow"/>
<feColorMatrix in="SourceAlpha" type="matrix" values="0 0 0 0 0 0 0 0 0 0 0 0 0 0 0 0 0 0 127 0"/>
<feOffset dx="-2" dy="-2"/>
<feGaussianBlur stdDeviation="2"/>
<feColorMatrix type="matrix" values="0 0 0 0 0.603922 0 0 0 0 0.635294 0 0 0 0 0.694118 0 0 0 0.25 0"/>
<feBlend mode="normal" in2="effect1_dropShadow" result="effect2_dropShadow"/>
<feBlend mode="normal" in="SourceGraphic" in2="effect2_dropShadow" result="shape"/>
</filter>
</defs>
</svg>
